<svg width="8" height="12" viewBox="0 0 8 12" fill="none" xmlns="http://www.w3.org/2000/svg">
<path d="M0.383579 11.6721C-0.108374 11.221 -0.146981 10.5931 0.383578 10.0417L4.51664 5.99877L0.383578 1.95586C-0.146981 1.40446 -0.108375 0.775465 0.383578 0.327517C0.874428 -0.123536 1.70391 -0.0945693 2.16498 0.327516C2.62604 0.747533 7.13083 5.1846 7.13083 5.1846C7.24759 5.29026 7.34046 5.4169 7.40388 5.55697C7.46731 5.69703 7.5 5.84764 7.5 5.99981C7.5 6.15198 7.46731 6.30259 7.40388 6.44265C7.34046 6.58271 7.24759 6.70935 7.13083 6.81501C7.13083 6.81501 2.62605 11.25 2.16498 11.6721C1.70391 12.0952 0.874428 12.1232 0.383579 11.6721Z" fill="#858585"/>
</svg>
