<svg width="8" height="12" viewBox="0 0 8 12" fill="none" xmlns="http://www.w3.org/2000/svg">
<path d="M7.61642 0.327898C8.10837 0.77895 8.14698 1.40691 7.61642 1.95831L3.48336 6.00123L7.61642 10.0441C8.14698 10.5955 8.10837 11.2245 7.61642 11.6725C7.12557 12.1235 6.29609 12.0946 5.83502 11.6725C5.37395 11.2525 0.869167 6.8154 0.869167 6.8154C0.752407 6.70974 0.659543 6.5831 0.596116 6.44303C0.532689 6.30297 0.499999 6.15236 0.499999 6.00019C0.499999 5.84802 0.532689 5.69741 0.596116 5.55735C0.659543 5.41729 0.752407 5.29065 0.869167 5.18499C0.869167 5.18499 5.37395 0.749984 5.83502 0.327898C6.29609 -0.0952219 7.12557 -0.123154 7.61642 0.327898Z" fill="#858585"/>
</svg>
